<?xml version="1.0" encoding="utf-8"?>
<!-- Generator: Adobe Illustrator 16.0.3, SVG Export Plug-In . SVG Version: 6.00 Build 0)  -->
<!DOCTYPE svg PUBLIC "-//W3C//DTD SVG 1.1//EN" "http://www.w3.org/Graphics/SVG/1.1/DTD/svg11.dtd">
<svg version="1.1" id="Layer_1" xmlns="http://www.w3.org/2000/svg" xmlns:xlink="http://www.w3.org/1999/xlink" x="0px" y="0px"
	 width="788px" height="800px" viewBox="352.5 0 788 800" style="enable-background:new 352.5 0 788 800;" xml:space="preserve">
<style type="text/css">
<![CDATA[
	.st0{fill:#DB3C40;}
]]>
</style>
<path class="st0" d="M748.6,12.9C534,12.9,360,186.8,360,401.4C360,616.1,534,790,748.6,790s388.6-174,388.6-388.6
	C1137.1,186.8,963.2,12.9,748.6,12.9z M593.9,648.7c-31,0-62.1,0-94.1,0c0-60,0-119.8,0-180.1c31.4,0,62.5,0,94.1,0
	C593.9,528.5,593.9,588.3,593.9,648.7z M728.2,648.8c-31.1,0-62.2,0-94.1,0c0-96.8,0-193,0-289.8c31.4,0,62.5,0,94.1,0
	C728.2,455.5,728.2,551.9,728.2,648.8z M707.9,277.1c-14.4,11-29.4,13.3-45.6,5.3c-1.5-0.7-4.5,0.1-6,1.2
	c-23.3,18.8-46.5,37.8-69.5,57c-1.6,1.3-1.8,5.3-1.3,7.8c3.9,19.9-6.3,39.2-24.7,45.9c-19.2,7-39.6-0.9-49-19
	c-7.5-14.4-4.8-33,6.5-45c11.3-11.9,29.3-15.8,44.5-8.8c4.6,2.1,7.5,1.9,11.5-1.4c21.6-18.1,43.5-35.9,65.4-53.5
	c3.7-3,4.5-5.4,3.5-10.3c-3.3-16.5,1.4-30.6,15.3-40.6c13.3-9.5,27.7-10.4,42-2.4c14.5,8.1,21.4,21,20,37.7
	c-0.3,4.2,0.6,6.4,4.2,8.5c20,11.5,39.8,23.2,59.6,35c3.4,2,5.8,2.6,9.5,0c10.9-7.8,22.9-9.1,35.7-4.7c2.3,0.8,6.6-0.2,8.4-1.9
	c24.6-23.9,48.8-48.2,73.3-72.2c3.3-3.2,3.5-5.9,2-10.1c-6.2-16.7,0.8-35.8,16.1-45.6c15.5-9.8,35.8-7.6,48.8,5.4
	c13.2,13.1,15.4,33.8,5.4,49.5c-9.4,14.7-28.9,21.9-45,15.8c-5.2-2-8.2-0.9-11.9,2.8c-23.5,23.6-47.2,46.9-70.9,70.3
	c-2.8,2.8-4.9,5-3.1,9.8c6,16.1,2.3,30.6-10.1,42c-12.4,11.5-27.2,13.7-42.8,7c-14.8-6.4-24.2-21.3-23-37.5
	c0.4-6.2-1.5-8.9-6.5-11.8C749.2,301.6,728.6,289.3,707.9,277.1z M862.9,648.8c-31.2,0-62.3,0-93.9,0c0-70.1,0-140.4,0-211.2
	c31.6,0,62.5,0,93.9,0C862.9,508,862.9,578.1,862.9,648.8z M997.4,648.9c-31.3,0-62.4,0-94.1,0c0-114.3,0-228.7,0-344.1
	c31.5,0,62.6,0,94.1,0C997.4,419.6,997.4,534,997.4,648.9z"/>
</svg>
